<?xml version="1.0" standalone="no"?>
<!DOCTYPE svg PUBLIC "-//W3C//DTD SVG 20010904//EN"
 "http://www.w3.org/TR/2001/REC-SVG-20010904/DTD/svg10.dtd">
<svg version="1.0" xmlns="http://www.w3.org/2000/svg"
 width="200.000000pt" height="70.000000pt" viewBox="0 0 200.000000 70.000000"
 preserveAspectRatio="xMidYMid meet">

<g transform="translate(0.000000,70.000000) scale(0.100000,-0.100000)"
fill="#000000" stroke="none">
<path d="M1634 576 c-18 -8 -35 -19 -39 -26 -5 -9 -1 -9 16 1 13 7 42 18 64
25 31 10 34 13 15 13 -14 0 -39 -6 -56 -13z"/>
<path d="M1670 541 c-76 -40 -101 -126 -59 -206 35 -68 51 -77 34 -20 -8 26
-15 65 -15 84 0 53 38 121 80 143 25 13 29 18 15 18 -11 0 -36 -8 -55 -19z"/>
<path d="M1850 550 c8 -5 20 -10 25 -10 6 0 3 5 -5 10 -8 5 -19 10 -25 10 -5
0 -3 -5 5 -10z"/>
<path d="M1744 515 c-19 -47 -34 -133 -34 -203 0 -29 -5 -62 -10 -73 -7 -13
-7 -19 0 -19 15 0 56 67 81 133 20 53 21 64 11 119 -15 81 -27 92 -48 43z"/>
<path d="M1839 489 c33 -59 38 -89 21 -136 l-10 -28 20 24 c44 52 32 123 -29
170 l-34 26 32 -56z"/>
<path d="M933 403 c-27 -5 -53 -39 -53 -69 0 -28 22 -45 79 -64 55 -18 66 -45
24 -61 -22 -8 -35 -7 -61 5 -40 20 -42 20 -42 2 0 -37 77 -59 123 -35 29 16
37 28 37 60 0 33 -17 47 -72 64 -35 10 -43 17 -43 36 0 21 4 24 35 23 19 -1
44 -3 54 -5 10 -2 21 1 23 8 7 21 -60 44 -104 36z"/>
<path d="M110 385 c0 -10 11 -15 35 -15 l34 0 3 -97 c2 -79 6 -98 18 -98 12 0
16 19 18 98 l3 97 34 0 c24 0 35 5 35 15 0 12 -17 15 -90 15 -73 0 -90 -3 -90
-15z"/>
<path d="M337 393 c-4 -3 -7 -38 -7 -77 0 -53 5 -79 20 -103 32 -52 108 -54
147 -4 8 10 12 51 13 104 0 71 -3 87 -15 87 -12 0 -15 -15 -15 -78 0 -85 -14
-112 -58 -112 -40 0 -52 25 -52 111 0 59 -3 79 -13 79 -8 0 -17 -3 -20 -7z"/>
<path d="M570 291 c0 -70 4 -112 11 -117 16 -9 29 15 29 54 0 33 1 33 42 30
37 -3 43 -6 50 -34 4 -17 14 -37 23 -44 17 -14 39 -4 28 13 -4 7 -13 27 -20
46 -9 28 -9 39 5 67 15 32 15 36 -5 62 -18 24 -27 27 -92 30 l-71 3 0 -110z
m130 64 c10 -12 10 -21 2 -40 -10 -21 -19 -25 -52 -25 l-40 0 0 40 c0 40 0 40
39 40 22 0 44 -6 51 -15z"/>
<path d="M802 288 c2 -67 7 -113 13 -113 6 0 11 46 13 113 2 96 0 112 -13 112
-13 0 -15 -16 -13 -112z"/>
<path d="M1092 288 c3 -130 20 -152 28 -38 l5 75 28 -42 c15 -24 33 -43 41
-43 7 0 26 19 42 43 l29 42 5 -75 c7 -112 25 -88 28 40 3 131 -6 139 -62 55
-20 -30 -40 -55 -44 -55 -4 0 -22 25 -40 55 -52 87 -63 76 -60 -57z"/>
<path d="M1362 288 l3 -113 70 0 c56 0 70 3 70 15 0 11 -14 16 -52 18 -51 3
-53 4 -53 32 0 27 3 29 43 32 29 2 42 8 42 18 0 10 -13 16 -42 18 -40 3 -43 5
-43 32 0 28 2 29 53 32 77 4 63 23 -21 26 l-73 3 3 -113z"/>
<path d="M1680 180 c0 -5 4 -10 9 -10 6 0 13 5 16 10 3 6 -1 10 -9 10 -9 0
-16 -4 -16 -10z"/>
</g>
</svg>
